HIERARCHY
ROOT Hips
{
 OFFSET 0.000000 0.000000 0.000000
 CHANNELS 6 Xposition Yposition Zposition Yrotation Xrotation Zrotation
 JOINT Chest
 {
  OFFSET 0.000000 9.585900 0.002600
  CHANNELS 3 Yrotation Xrotation Zrotation
  JOINT Chest2
  {
   OFFSET 0.000000 9.601200 -0.005300
   CHANNELS 3 Yrotation Xrotation Zrotation
   JOINT Chest3
   {
    OFFSET 0.000000 9.561800 0.000000
    CHANNELS 3 Yrotation Xrotation Zrotation
    JOINT Chest4
    {
     OFFSET 0.000000 9.552100 0.000000
     CHANNELS 3 Yrotation Xrotation Zrotation
     JOINT Neck
     {
      OFFSET 0.000000 14.453000 0.000000
      CHANNELS 3 Yrotation Xrotation Zrotation
      JOINT Head
      {
       OFFSET 0.000000 8.936500 -0.011300
       CHANNELS 3 Yrotation Xrotation Zrotation
       End Site
       {
        OFFSET 0.000000 17.073600 -0.006000
       }
      }
     }
     JOINT RightCollar
     {
      OFFSET -2.921100 9.558500 0.000000
      CHANNELS 3 Yrotation Xrotation Zrotation
      JOINT RightShoulder
      {
       OFFSET -13.519700 0.000000 0.000000
       CHANNELS 3 Yrotation Xrotation Zrotation
       JOINT RightElbow
       {
        OFFSET 0.000000 -29.696600 0.000000
        CHANNELS 3 Yrotation Xrotation Zrotation
        JOINT RightWrist
        {
         OFFSET 0.000000 -24.004700 0.000000
         CHANNELS 3 Yrotation Xrotation Zrotation
         End Site
         {
          OFFSET 0.000000 -17.728500 0.000000
         }
        }
       }
      }
     }
     JOINT LeftCollar
     {
      OFFSET 2.921100 9.558500 0.000000
      CHANNELS 3 Yrotation Xrotation Zrotation
      JOINT LeftShoulder
      {
       OFFSET 13.519700 0.000000 0.000000
       CHANNELS 3 Yrotation Xrotation Zrotation
       JOINT LeftElbow
       {
        OFFSET 0.000000 -29.696600 0.000000
        CHANNELS 3 Yrotation Xrotation Zrotation
        JOINT LeftWrist
        {
         OFFSET 0.000000 -24.004700 0.000000
         CHANNELS 3 Yrotation Xrotation Zrotation
         End Site
         {
          OFFSET 0.000000 -17.728500 0.000000
         }
        }
       }
      }
     }
    }
   }
  }
 }
 JOINT RightHip
 {
  OFFSET -7.771700 -0.012900 -0.001300
  CHANNELS 3 Yrotation Xrotation Zrotation
  JOINT RightKnee
  {
   OFFSET 0.000000 -40.869800 0.001200
   CHANNELS 3 Yrotation Xrotation Zrotation
   JOINT RightAnkle
   {
    OFFSET 0.000000 -39.717900 0.002100
    CHANNELS 3 Yrotation Xrotation Zrotation
    JOINT RightToe
    {
     OFFSET 0.000000 -4.965400 11.033500
     CHANNELS 3 Yrotation Xrotation Zrotation
     End Site
     {
      OFFSET 0.000000 -1.423100 5.872300
     }
    }
   }
  }
 }
 JOINT LeftHip
 {
  OFFSET 7.771700 -0.012900 -0.001300
  CHANNELS 3 Yrotation Xrotation Zrotation
  JOINT LeftKnee
  {
   OFFSET 0.000000 -40.869800 0.001200
   CHANNELS 3 Yrotation Xrotation Zrotation
   JOINT LeftAnkle
   {
    OFFSET 0.000000 -39.717900 0.002100
    CHANNELS 3 Yrotation Xrotation Zrotation
    JOINT LeftToe
    {
     OFFSET 0.000000 -4.965400 11.033500
     CHANNELS 3 Yrotation Xrotation Zrotation
     End Site
     {
      OFFSET 0.000000 -1.423100 5.872300
     }
    }
   }
  }
 }
}
MOTION
Frames: 16
Frame Time: 0.008333
-106.686404 51.756907 -41.173891 177.570976 -28.482643 0.931988 -0.911414 14.773196 0.175440 -0.088785 1.346106 0.075916 -0.161190 2.176583 0.073366 -0.835103 13.262794 0.607677 -4.978782 18.801186 -0.610650 -5.193210 -5.774277 0.476338 5.269667 15.659347 9.911162 10.517374 -9.360495 -39.672580 138.779973 -30.227805 178.152783 0.486895 -2.984391 -20.311441 -5.403563 15.225229 -14.141331 -4.375032 -11.996680 42.688729 -148.472494 -31.512772 -167.637031 17.414100 -12.296159 8.516002 -9.689363 -54.488375 3.247054 -89.644273 79.453535 -98.292478 -5.155311 -14.816891 8.384467 0.265009 -0.558069 0.102039 8.955352 -52.125989 -8.953602 25.479450 83.304788 31.739369 -2.902456 -9.245226 -0.472354 0.061743 0.485218 0.025803
-106.687095 51.751418 -41.172399 177.572563 -28.414076 0.962873 -0.913603 14.754033 0.171451 -0.091359 1.328837 0.067988 -0.150867 2.257556 0.123574 -0.847188 13.224780 0.607887 -4.988475 18.776578 -0.610214 -5.199202 -5.782736 0.490524 5.312837 15.648795 9.966193 10.493768 -9.452975 -39.697718 138.723119 -30.200485 178.143662 0.500730 -2.986110 -20.317290 -5.434881 15.155432 -14.191809 -4.337117 -11.951333 42.648322 -148.461556 -31.462085 -167.629565 17.414704 -12.305063 8.508528 -9.685669 -54.566323 3.211552 -89.666628 79.468309 -98.321048 -5.128659 -14.790979 8.396163 0.226071 -0.538931 0.086285 9.013339 -52.184514 -9.023653 25.432752 83.297298 31.692707 -2.893659 -9.236979 -0.474888 0.070365 0.487493 0.030871
-106.686140 51.747892 -41.170545 177.575701 -28.353616 0.983546 -0.917593 14.725685 0.167478 -0.084949 1.377918 0.096783 -0.151258 2.255793 0.126806 -0.851998 13.204883 0.613637 -4.992163 18.768987 -0.599425 -5.210913 -5.803998 0.490186 5.336735 15.638569 9.995104 10.486230 -9.525640 -39.683220 138.657024 -30.177598 178.141505 0.517390 -2.983269 -20.321019 -5.448532 15.141378 -14.207968 -4.312844 -11.944818 42.601602 -148.444652 -31.453231 -167.644491 17.422914 -12.330283 8.507613 -9.697134 -54.635037 3.191277 -89.709337 79.471373 -98.356893 -5.111312 -14.776079 8.399756 0.230893 -0.540081 0.070120 9.055390 -52.235533 -9.072356 25.355202 83.290755 31.617107 -2.898994 -9.232191 -0.482225 0.081010 0.491533 0.039110
-106.684660 51.746114 -41.168229 177.568231 -28.299244 1.008023 -0.908112 14.739400 0.185523 -0.080350 1.390996 0.105653 -0.153754 2.237539 0.119729 -0.852287 13.200860 0.628409 -4.995428 18.762774 -0.589791 -5.232336 -5.851736 0.464477 5.344916 15.624608 10.006106 10.477054 -9.576325 -39.698814 138.619258 -30.172150 178.131230 0.541694 -2.969722 -20.368589 -5.429959 15.204818 -14.194644 -4.341816 -12.015802 42.548222 -148.442415 -31.430081 -167.644983 17.404659 -12.306445 8.496058 -9.706663 -54.694605 3.176836 -89.714849 79.486167 -98.360573 -5.096954 -14.766708 8.395566 0.223834 -0.532238 0.062690 9.103950 -52.277321 -9.116659 25.280623 83.278735 31.546409 -2.913121 -9.224344 -0.486780 0.078280 0.492476 0.041483
-106.685426 51.745545 -41.164845 177.568803 -28.245595 1.045375 -0.896879 14.797553 0.212939 -0.088979 1.342356 0.081603 -0.153955 2.236321 0.121987 -0.852113 13.197130 0.641946 -4.997804 18.758592 -0.581516 -5.238664 -5.861990 0.479785 5.330110 15.591171 9.985911 10.497062 -9.618911 -39.611216 138.522745 -30.150309 178.192619 0.556524 -2.962351 -20.391942 -5.433984 15.206832 -14.208374 -4.365874 -12.059465 42.526134 -148.436600 -31.435955 -167.655664 17.387275 -12.270637 8.478100 -9.736453 -54.757940 3.149274 -89.732092 79.516379 -98.392675 -5.064586 -14.765718 8.388368 0.198771 -0.533415 0.048293 9.166796 -52.314201 -9.185018 25.166809 83.261341 31.430248 -2.925485 -9.209561 -0.487753 0.084880 0.490492 0.046255
-106.683330 51.744273 -41.157230 177.570007 -28.171375 1.069044 -0.887005 14.803312 0.237542 -0.091912 1.325189 0.074271 -0.161145 2.204333 0.104585 -0.851892 13.195331 0.648319 -4.980238 18.787878 -0.553506 -5.248856 -5.866476 0.493142 5.331370 15.587256 9.993441 10.505595 -9.650423 -39.573638 138.447970 -30.169155 178.187905 0.544045 -2.992111 -20.344571 -5.420393 15.244552 -14.199645 -4.343793 -12.055136 42.490998 -148.416919 -31.465577 -167.701757 17.426678 -12.352563 8.504243 -9.760158 -54.837861 3.144945 -89.724057 79.539006 -98.383585 -5.068178 -14.764341 8.376773 0.203742 -0.529142 0.046676 9.216772 -52.375475 -9.235790 25.020814 83.244922 31.280716 -2.927773 -9.196532 -0.487897 0.087435 0.492952 0.049523
-106.681682 51.741141 -41.143711 177.591511 -28.063955 1.089897 -0.899335 14.757883 0.246585 -0.091787 1.324408 0.075382 -0.167299 2.172919 0.087579 -0.832841 13.236647 0.691858 -4.987973 18.772671 -0.557378 -5.253692 -5.870113 0.500300 5.355153 15.608450 10.040388 10.493467 -9.728991 -39.571509 138.358816 -30.154717 178.236878 0.558313 -2.969098 -20.378709 -5.429913 15.239274 -14.218305 -4.253904 -11.986011 42.428874 -148.438545 -31.384961 -167.679519 17.455599 -12.407196 8.521494 -9.780306 -54.951428 3.128907 -89.719843 79.561388 -98.361405 -5.099157 -14.776299 8.353657 0.229924 -0.511557 0.057069 9.262888 -52.470541 -9.302696 24.886425 83.214181 31.137842 -2.942670 -9.174870 -0.481742 0.088244 0.499470 0.049083
-106.680884 51.741200 -41.134341 177.596964 -27.989821 1.130179 -0.899928 14.743975 0.243197 -0.091631 1.323860 0.076476 -0.169605 2.173472 0.089044 -0.821880 13.247023 0.716192 -5.015104 18.726954 -0.584334 -5.207076 -5.784933 0.549445 5.352055 15.615370 10.051098 10.493061 -9.780783 -39.539329 138.293878 -30.140582 178.268078 0.572344 -2.982860 -20.377060 -5.435796 15.233086 -14.233972 -4.203127 -11.943041 42.380928 -148.450231 -31.335013 -167.666002 17.449287 -12.346737 8.480624 -9.792829 -55.035704 3.103760 -89.708599 79.582075 -98.365602 -5.088580 -14.773990 8.351373 0.218984 -0.514192 0.046863 9.328380 -52.529839 -9.382508 24.812908 83.189586 31.059138 -2.957449 -9.149487 -0.478629 0.089753 0.492235 0.048064
-106.675043 51.741203 -41.123575 177.590217 -27.911842 1.151066 -0.880793 14.724705 0.266313 -0.091476 1.323514 0.077587 -0.172117 2.174589 0.091228 -0.816812 13.243294 0.727439 -5.001380 18.745663 -0.567409 -5.204346 -5.781225 0.555506 5.328147 15.593992 10.029384 10.492986 -9.799837 -39.528333 138.298314 -30.178864 178.233588 0.588722 -2.957244 -20.438034 -5.431520 15.241874 -14.240783 -4.174532 -11.916183 42.343170 -148.457097 -31.315147 -167.666215 17.455394 -12.331041 8.451417 -9.819082 -55.120212 3.114765 -89.655150 79.593436 -98.298622 -5.100182 -14.754464 8.317451 0.245938 -0.523318 0.053135 9.371673 -52.597395 -9.418476 24.747811 83.166248 30.987493 -2.966375 -9.130380 -0.474613 0.088119 0.487825 0.042671
-106.670777 51.742953 -41.115313 177.605302 -27.854559 1.176406 -0.892988 14.695640 0.253785 -0.082791 1.352061 0.096821 -0.157201 2.217406 0.122211 -0.834721 13.197481 0.710569 -4.987832 18.764430 -0.551995 -5.212084 -5.795787 0.552777 5.301352 15.575353 10.008688 10.499198 -9.795300 -39.469167 138.283852 -30.177434 178.232081 0.595957 -2.925493 -20.517149 -5.426277 15.252319 -14.249480 -4.146277 -11.890739 42.308235 -148.465532 -31.298063 -167.667710 17.459748 -12.335813 8.436369 -9.809672 -55.182958 3.082176 -89.637673 79.595012 -98.280410 -5.088840 -14.741369 8.318885 0.224432 -0.538575 0.051730 9.413631 -52.642068 -9.469870 24.621152 83.145311 30.850871 -2.976248 -9.106457 -0.470368 0.088781 0.480220 0.044517
-106.664967 51.744088 -41.105520 177.612010 -27.789917 1.199784 -0.881649 14.701908 0.278489 -0.086233 1.337336 0.089141 -0.152411 2.231231 0.133476 -0.836936 13.182106 0.712408 -4.986294 18.762972 -0.548846 -5.210976 -5.797444 0.555751 5.315968 15.630963 10.051437 10.491813 -9.849682 -39.482330 138.270621 -30.183054 178.225390 0.603789 -2.917851 -20.578403 -5.421305 15.262827 -14.255509 -4.117083 -11.868079 42.275103 -148.474335 -31.282682 -167.668757 17.459141 -12.338455 8.425502 -9.836026 -55.256098 3.079860 -89.604896 79.600789 -98.251845 -5.068973 -14.717535 8.300871 0.224617 -0.560418 0.055584 9.449708 -52.694186 -9.495930 24.367441 83.129139 30.578968 -2.998427 -9.089503 -0.466060 0.105804 0.480797 0.052858
-106.659398 51.745102 -41.095465 177.615058 -27.725305 1.229074 -0.865303 14.705941 0.299785 -0.090415 1.323109 0.080779 -0.151548 2.231562 0.135007 -0.840584 13.168579 0.711318 -4.998190 18.745960 -0.556068 -5.188813 -5.775848 0.567304 5.324521 15.672483 10.075633 10.492205 -9.877412 -39.482140 138.269637 -30.208851 178.204594 0.611197 -2.913867 -20.641307 -5.404059 15.287096 -14.248928 -4.087834 -11.846073 42.245033 -148.487449 -31.271010 -167.665764 17.455754 -12.345583 8.418542 -9.844295 -55.329105 3.067736 -89.560269 79.604563 -98.209816 -5.060486 -14.692029 8.287148 0.227798 -0.576852 0.067136 9.491223 -52.745623 -9.538207 24.195407 83.108228 30.392037 -2.999406 -9.067469 -0.462874 0.100517 0.477630 0.055637
-106.654325 51.746787 -41.086922 177.621951 -27.672015 1.261980 -0.869156 14.678654 0.283750 -0.090092 1.323326 0.081206 -0.139286 2.258944 0.154414 -0.862355 13.127804 0.686637 -4.985567 18.758057 -0.545623 -5.168786 -5.759277 0.577166 5.352323 15.726325 10.108267 10.494950 -9.885333 -39.467623 138.274773 -30.237188 178.179732 0.620381 -2.901521 -20.701950 -5.376580 15.324103 -14.232597 -4.044819 -11.809048 42.221277 -148.499456 -31.260892 -167.661986 17.449332 -12.356388 8.420521 -9.840690 -55.391796 3.036118 -89.535210 79.598763 -98.182594 -5.043709 -14.673862 8.273252 0.218138 -0.591159 0.068545 9.533004 -52.784219 -9.582908 24.021711 83.086919 30.202348 -3.012978 -9.045651 -0.459259 0.103445 0.472246 0.057880
-106.649715 51.749559 -41.080888 177.625073 -27.636022 1.301477 -0.872424 14.667813 0.261933 -0.089676 1.323749 0.081568 -0.137923 2.259648 0.155459 -0.808534 13.202169 0.747657 -4.976247 18.753029 -0.533360 -5.214991 -5.825839 0.563620 5.308453 15.697340 10.074022 10.489719 -9.906420 -39.467104 138.307660 -30.283329 178.144724 0.629506 -2.876552 -20.760687 -5.405870 15.285505 -14.255676 -4.021716 -11.784880 42.196152 -148.526900 -31.209146 -167.621754 17.417097 -12.323115 8.421263 -9.866294 -55.440549 3.012582 -89.537240 79.612011 -98.201997 -5.010159 -14.653847 8.253145 0.190482 -0.614971 0.065843 9.578739 -52.804316 -9.627386 23.861776 83.067149 30.026360 -3.039609 -9.022235 -0.459404 0.106494 0.462314 0.063011
-106.643814 51.752568 -41.075906 177.633036 -27.607559 1.332248 -0.866085 14.690451 0.268228 -0.089004 1.324714 0.082652 -0.149164 2.233944 0.138125 -0.775076 13.247995 0.784597 -4.991096 18.723237 -0.540999 -5.237287 -5.857005 0.558391 5.289784 15.691601 10.058561 10.471734 -9.955368 -39.491721 138.389320 -30.363240 178.093657 0.632410 -2.843237 -20.818155 -5.396681 15.292155 -14.254988 -4.017617 -11.772309 42.172904 -148.552502 -31.159962 -167.580449 17.387476 -12.289755 8.432996 -9.859323 -55.477408 2.974481 -89.532401 79.602104 -98.193816 -4.993893 -14.637047 8.244472 0.202976 -0.630965 0.063910 9.612488 -52.819642 -9.665212 23.745660 83.048184 29.895849 -3.047387 -8.996115 -0.465859 0.106312 0.449290 0.071428
-106.638602 51.753200 -41.066976 177.664382 -27.552532 1.355917 -0.864124 14.719169 0.298210 -0.082206 1.339083 0.091627 -0.153201 2.225461 0.132649 -0.789971 13.213525 0.765328 -5.005293 18.696874 -0.545776 -5.250328 -5.875396 0.557873 5.283517 15.697160 10.054390 10.453867 -9.953477 -39.473142 138.390418 -30.342359 178.075868 0.572481 -2.758344 -20.869268 -5.390616 15.294964 -14.252657 -3.996066 -11.743638 42.160431 -148.519013 -31.220191 -167.633162 17.428992 -12.364887 8.482482 -9.854850 -55.541751 2.923349 -89.515321 79.586301 -98.146329 -5.013521 -14.587113 8.202942 0.265852 -0.672710 0.085150 9.643834 -52.863702 -9.729846 23.651134 83.025613 29.794706 -3.060137 -8.994076 -0.469427 0.106366 0.466452 0.073713
